<svg width="628" height="413" viewBox="0 0 628 413" fill="none" xmlns="http://www.w3.org/2000/svg">
<g clip-path="url(#clip0_1_137)">
<path d="M610.424 235.113L496.711 331.995L471.831 353.19L402.209 352.765L342.792 352.404L337.857 352.375L325.799 338.205L277.859 281.872L253.794 253.59L246.559 245.09L241.324 238.938L229.66 225.23L210.774 203.04L229.902 186.745L248.169 171.18L261.3 159.994L426.627 19.1395L610.424 235.113Z" fill="#F2F2F2"/>
<path d="M271.182 55.9823H53.2483V213.619H271.182V55.9823Z" fill="#3F3D56"/>
<path d="M223.098 163.213C237.044 163.213 248.35 151.901 248.35 137.947C248.35 123.993 237.044 112.681 223.098 112.681C209.152 112.681 197.846 123.993 197.846 137.947C197.846 151.901 209.152 163.213 223.098 163.213Z" fill="#F2F2F2"/>
<path d="M223.203 145.554L210.566 132.91C210.154 132.498 209.923 131.939 209.923 131.356C209.923 130.773 210.154 130.215 210.566 129.803C210.978 129.39 211.536 129.159 212.119 129.159C212.701 129.159 213.26 129.39 213.672 129.803L222.993 139.129L252.737 105.191C252.927 104.974 253.158 104.797 253.417 104.669C253.676 104.542 253.957 104.466 254.244 104.447C254.532 104.428 254.821 104.466 255.094 104.559C255.367 104.652 255.619 104.798 255.836 104.988C256.053 105.178 256.23 105.409 256.357 105.668C256.485 105.927 256.56 106.208 256.579 106.496C256.598 106.784 256.56 107.073 256.467 107.346C256.375 107.619 256.229 107.871 256.039 108.088L223.203 145.554Z" fill="#183D51"/>
<path d="M523.15 381.692H317.843V382.791H523.15V381.692Z" fill="#3F3D56"/>
<path d="M622.469 352.582H458.138C458.138 352.582 454.807 303.699 474.516 303.144C494.224 302.588 492.004 324.808 516.709 294.256C541.414 263.705 571.393 265.371 575.279 283.424C579.165 301.477 567.784 315.92 588.603 311.476C609.422 307.032 639.401 318.697 622.469 352.582Z" fill="#183D51"/>
<path d="M537.529 352.593L536.975 352.571C538.268 320.387 545.005 299.708 550.428 288.029C556.317 275.347 561.992 270.213 562.048 270.163L562.417 270.578C562.361 270.628 556.753 275.711 550.911 288.307C545.518 299.937 538.818 320.53 537.529 352.593Z" fill="#F2F2F2"/>
<path d="M597.005 352.659L596.472 352.504C602.889 330.464 618.002 316.549 618.154 316.411L618.527 316.822C618.376 316.959 603.377 330.776 597.005 352.659Z" fill="#F2F2F2"/>
<path d="M484.021 352.62L483.471 352.543C485.648 336.831 481.715 324.641 478.032 317.182C474.045 309.105 469.495 304.694 469.449 304.65L469.833 304.249C469.88 304.294 474.5 308.773 478.53 316.936C482.247 324.465 486.218 336.768 484.021 352.62Z" fill="#F2F2F2"/>
<path d="M628 352.582H23.6049V353.68H628V352.582Z" fill="#3F3D56"/>
<path d="M459.472 411.901H0V413H459.472V411.901Z" fill="#3F3D56"/>
<path d="M310.157 214.169H52.6993V9.84467H310.157V214.169ZM53.7972 213.07H309.059V10.9432H53.7972V213.07Z" fill="#3F3D56"/>
<path d="M262.007 70.4871H185.154V79.2752H262.007V70.4871Z" fill="#F2F2F2"/>
<path d="M383.773 74.0169C383.773 79.9647 372.584 84.7863 358.784 84.7863C344.982 84.7863 333.794 79.9647 333.794 74.0169C333.794 68.0691 344.982 63.2476 358.784 63.2476C372.584 63.2476 383.773 68.0691 383.773 74.0169Z" fill="#658DA4"/>
<path d="M383.773 74.0169C383.773 79.9647 372.584 84.7863 358.784 84.7863C344.982 84.7863 333.794 79.9647 333.794 74.0169C333.794 68.0691 344.982 63.2476 358.784 63.2476C372.584 63.2476 383.773 68.0691 383.773 74.0169Z" fill="#658DA4"/>
<path d="M325.388 333.293L324.344 350.681H338.673L341.711 333.293H325.388Z" fill="#FAB29B"/>
<path d="M381.931 331.686L383.18 349.074H397.511L396.92 331.686H381.931Z" fill="#FAB29B"/>
<path d="M430.511 82.4628L439.182 95.2274L444.885 79.3055C444.885 79.3055 452.069 77.7982 454.425 73.6039C456.168 70.5001 450.228 72.3308 450.228 72.3308C450.228 72.3308 454.842 71.6951 454.724 69.7337C454.653 68.5421 450.621 68.7458 450.621 68.7458C450.621 68.7458 455.17 68.1059 454.474 66.3881C453.777 64.6703 450.155 65.3153 450.155 65.3153C450.155 65.3153 453.659 64.526 453.658 62.6376C453.657 60.397 447.535 61.3247 445.996 61.6353C439.499 62.9466 430.511 82.4628 430.511 82.4628Z" fill="#FAB29B"/>
<path d="M452.187 64.5364C452.187 64.5364 452.012 64.6526 451.736 64.7859C451.596 64.8461 451.438 64.9319 451.259 64.9964C451.081 65.0609 450.89 65.1305 450.7 65.1992C450.505 65.2535 450.31 65.307 450.127 65.3571C449.944 65.4088 449.765 65.4301 449.616 65.4623C449.313 65.5132 449.104 65.5192 449.104 65.5192C449.104 65.5192 449.279 65.402 449.555 65.2688C449.695 65.2085 449.852 65.122 450.031 65.0592C450.21 64.9938 450.401 64.9251 450.591 64.8563C450.786 64.802 450.981 64.7485 451.164 64.6985C451.347 64.6475 451.525 64.6255 451.675 64.5932C451.977 64.5431 452.187 64.5364 452.187 64.5364Z" fill="#1E7082"/>
<path d="M453.327 68.0025C453.327 68.0025 453.154 68.1222 452.88 68.2622C452.742 68.325 452.585 68.4141 452.408 68.482C452.23 68.5508 452.041 68.6238 451.853 68.6976C451.658 68.7553 451.464 68.813 451.281 68.8673C451.1 68.9234 450.922 68.948 450.773 68.9828C450.472 69.0405 450.261 69.0507 450.261 69.0507C450.261 69.0507 450.434 68.9301 450.707 68.791C450.846 68.7281 451.003 68.6382 451.18 68.5711C451.358 68.5024 451.546 68.4294 451.736 68.3564C451.93 68.2987 452.124 68.2401 452.307 68.1867C452.488 68.1315 452.667 68.106 452.815 68.0704C453.116 68.0135 453.327 68.0025 453.327 68.0025Z" fill="#1E7082"/>
<path d="M453.614 71.7923C453.614 71.7923 453.421 71.8797 453.126 71.9688C452.977 72.0061 452.807 72.0664 452.619 72.102C452.432 72.1377 452.231 72.1767 452.032 72.2149C451.829 72.2378 451.627 72.2608 451.437 72.282C451.248 72.3049 451.066 72.2972 450.913 72.3057C450.605 72.3091 450.395 72.282 450.395 72.282C450.395 72.282 450.587 72.1937 450.883 72.1054C451.031 72.0672 451.202 72.007 451.39 71.9722C451.577 71.9365 451.777 71.8975 451.978 71.8593C452.18 71.8364 452.382 71.8135 452.572 71.7931C452.762 71.771 452.943 71.777 453.095 71.7685C453.404 71.766 453.614 71.7923 453.614 71.7923Z" fill="#1E7082"/>
<path d="M379.083 117.291C379.083 117.291 387.481 129.63 405.606 131.436C423.731 133.243 442.339 95.3803 442.339 95.3803L430.942 79.4117L408.107 106.778C408.107 106.778 390.248 75.0349 385.569 73.4521C380.42 71.7097 366.785 97.4503 379.083 117.291Z" fill="#AAB6BC"/>
<path d="M396.612 87.5595C388.535 94.0751 381.895 102.218 376.193 111.327C376.932 113.35 377.879 115.349 379.083 117.291C379.083 117.291 379.512 117.919 380.377 118.907C385.361 109.591 392.798 101.291 400.215 93.3469C399.053 91.4415 397.835 89.4784 396.612 87.5595Z" fill="#658DA4"/>
<path d="M396.612 87.5595C388.535 94.0751 381.895 102.218 376.193 111.327C376.932 113.35 377.879 115.349 379.083 117.291C379.083 117.291 379.512 117.919 380.377 118.907C385.361 109.591 392.798 101.291 400.215 93.3469C399.053 91.4415 397.835 89.4784 396.612 87.5595Z" fill="#658DA4"/>
<path d="M428.715 82.4319C428.715 82.4319 429.308 83.5632 430.317 85.1868C430.806 86.0084 431.429 86.9326 432.085 87.929C432.76 88.9127 433.49 89.9557 434.275 90.9555C435.038 91.9731 435.841 92.9619 436.632 93.8522C437.414 94.7518 438.168 95.5734 438.847 96.2439C439.184 96.5816 439.493 96.8923 439.768 97.1673C440.053 97.4304 440.302 97.6595 440.507 97.8488C440.918 98.2273 441.153 98.4437 441.153 98.4437C441.153 98.4437 440.903 98.2443 440.468 97.8946C440.026 97.5509 439.403 97.0501 438.706 96.3898C438.345 96.0724 437.978 95.7041 437.591 95.3137C437.198 94.9275 436.79 94.515 436.398 94.061C435.589 93.1741 434.768 92.1904 433.989 91.1745C432.436 89.1376 431.061 86.9725 430.142 85.2887C429.67 84.4544 429.327 83.7313 429.082 83.2288C428.849 82.7221 428.715 82.4319 428.715 82.4319Z" fill="#1E7082"/>
<path d="M408.107 106.777C408.107 106.777 407.983 107.058 407.762 107.455C407.646 107.649 407.524 107.885 407.369 108.121C407.215 108.358 407.05 108.61 406.886 108.863C406.708 109.106 406.53 109.349 406.364 109.577C406.198 109.806 406.021 110.003 405.88 110.181C405.587 110.529 405.368 110.743 405.368 110.743C405.368 110.743 405.492 110.462 405.713 110.066C405.829 109.872 405.95 109.635 406.106 109.399C406.26 109.163 406.425 108.91 406.589 108.658C406.768 108.414 406.945 108.172 407.112 107.943C407.278 107.715 407.455 107.516 407.596 107.339C407.888 106.992 408.107 106.777 408.107 106.777Z" fill="#1E7082"/>
<path d="M413.465 81.6612C419.799 77.3948 423.418 78.8495 422.793 81.8895C422.167 84.9305 413.465 81.6612 413.465 81.6612Z" fill="#FAB29B"/>
<path d="M449.188 105.863L446.078 93.4264L454.843 52.128L457.658 67.8156L449.188 105.863Z" fill="#252429"/>
<path d="M456.891 68.1509L454.544 53.4724L452.843 53.0938L451.93 67.8343C451.93 67.8343 433.299 66.1768 426.904 66.2226L425.291 66.9593L451.934 72.6957L456.891 68.1509Z" fill="white"/>
<path d="M441.906 107.971C442.808 108.1 444.662 108.245 446.684 107.466C447.804 107.034 448.62 106.455 449.158 105.998C451.981 93.3156 454.804 80.6332 457.628 67.9509C457.12 68.4423 455.853 69.5295 453.813 69.9488C452.335 70.2518 451.081 70.0744 450.377 69.9233C447.553 82.6056 444.73 95.2888 441.906 107.971Z" fill="#252429"/>
<path d="M444.766 103.71L451.706 74.0165L455.587 73.0277L449.103 102.827L444.766 103.71Z" fill="#454651"/>
<path d="M441.892 108.034L415.767 104.655L424.237 66.6069L450.362 69.9865L441.892 108.034Z" fill="#252429"/>
<path d="M452.843 53.0938L450.553 69.541L452.859 68.5429L452.843 53.0938Z" fill="white"/>
<path d="M449.989 70.2269C449.989 70.2269 449.53 72.5762 448.842 76.1C448.484 77.8594 448.065 79.9116 447.618 82.1098C447.158 84.3062 446.667 86.6487 446.176 88.9911C445.669 91.331 445.164 93.6701 444.688 95.8632C444.201 98.0528 443.746 100.097 443.357 101.85C442.55 105.348 442.011 107.681 442.011 107.681C442.011 107.681 442.47 105.331 443.158 101.808C443.516 100.048 443.935 97.996 444.382 95.7978C444.842 93.6013 445.333 91.2589 445.824 88.9164C446.331 86.5774 446.837 84.2383 447.312 82.0453C447.8 79.8547 448.254 77.8102 448.644 76.0584C449.451 72.5592 449.989 70.2269 449.989 70.2269Z" fill="#1E7082"/>
<path d="M453.925 69.2828C453.925 69.2828 453.623 69.0732 453.132 68.8559C452.891 68.7354 452.593 68.6361 452.282 68.5148C451.967 68.401 451.628 68.289 451.28 68.2041C450.939 68.0972 450.59 68.0098 450.262 67.9393C449.932 67.8655 449.624 67.7967 449.36 67.7373C448.829 67.6261 448.471 67.5387 448.471 67.5387C448.471 67.5387 448.562 67.5345 448.722 67.5285C448.882 67.5328 449.114 67.5099 449.386 67.5362C449.937 67.5549 450.664 67.6703 451.378 67.857C452.086 68.0658 452.771 68.362 453.23 68.6794C453.698 68.9832 453.925 69.2828 453.925 69.2828Z" fill="#1E7082"/>
<path d="M452.843 53.0937C452.843 53.0937 452.896 54.0595 452.946 55.5074C452.963 56.2314 452.983 57.0767 453.004 57.9815C453.012 58.887 453.022 59.8529 453.031 60.8179C453.023 61.7837 453.017 62.7495 453.01 63.6543C452.991 64.5598 452.973 65.4052 452.958 66.1291C452.911 67.577 452.859 68.5428 452.859 68.5428C452.859 68.5428 452.805 67.5779 452.754 66.1291C452.737 65.4052 452.718 64.5598 452.697 63.6551C452.688 62.7495 452.68 61.7845 452.67 60.8187C452.678 59.8529 452.685 58.887 452.692 57.9823C452.711 57.0767 452.729 56.2323 452.744 55.5074C452.791 54.0595 452.843 53.0937 452.843 53.0937Z" fill="#1E7082"/>
<path d="M342.291 39.3716C343.001 43.5515 338.757 58.4431 352.332 58.4354C360.87 58.4303 383.432 45.3389 378.947 28.4249C361.724 22.4822 342.467 36.2976 342.291 39.3716Z" fill="#252429"/>
<path d="M323.713 347.933C323.713 347.933 319.013 360.524 319.733 366.369C332.173 366.395 355.04 367.488 355.04 367.488C355.04 367.488 355.788 359.411 348.655 358.537C341.522 357.664 339.904 347.709 339.904 347.709L323.713 347.933Z" fill="#3F3D56"/>
<path d="M338.886 361.439L337.36 359.861L334.501 361.952L332.238 360.285L336.15 356.554L333.098 353.831L327.57 359.861L321.769 353.86C320.572 357.934 319.338 363.164 319.733 366.369C323.891 366.378 329.214 366.506 334.459 366.672L338.886 361.439Z" fill="#72717E"/>
<path d="M349.45 358.676C343.891 360.218 343.229 365.199 343.267 365.907C336.522 367.579 326.657 364.486 319.794 363.904C319.723 364.362 319.676 364.257 319.662 364.831C319.65 365.349 319.67 366.282 319.732 366.788C325.045 368.277 347.724 370.9 355.039 367.907C355.157 367.062 355.095 365.239 354.599 363.591C353.986 361.558 352.589 359.354 349.45 358.676Z" fill="white"/>
<path d="M339.989 358.417C339.989 358.417 340.168 358.194 340.488 357.918C340.653 357.787 340.839 357.622 341.063 357.48C341.285 357.335 341.529 357.192 341.778 357.056C342.289 356.813 342.834 356.629 343.259 356.574C343.683 356.511 343.967 356.55 343.967 356.55C343.967 356.55 343.9 356.572 343.783 356.611C343.664 356.638 343.504 356.709 343.309 356.771C343.114 356.837 342.896 356.938 342.661 357.035C342.425 357.132 342.18 357.252 341.939 357.379C341.692 357.495 341.448 357.619 341.225 357.747C340.998 357.87 340.785 357.986 340.604 358.084C340.24 358.283 339.989 358.417 339.989 358.417Z" fill="#1E7082"/>
<path d="M337.48 353.831C337.48 353.831 337.692 353.64 338.054 353.421C338.239 353.319 338.449 353.186 338.694 353.083C338.935 352.977 339.199 352.877 339.468 352.784C340.012 352.627 340.58 352.537 341.008 352.552C341.437 352.56 341.711 352.644 341.711 352.644C341.711 352.644 341.641 352.655 341.519 352.675C341.398 352.682 341.227 352.725 341.025 352.755C340.822 352.788 340.59 352.851 340.343 352.908C340.094 352.964 339.833 353.043 339.574 353.128C339.311 353.202 339.05 353.284 338.809 353.373C338.565 353.458 338.336 353.536 338.141 353.604C337.749 353.741 337.48 353.831 337.48 353.831Z" fill="#1E7082"/>
<path d="M320.839 358.347C320.839 358.347 321.379 358.336 322.136 358.622C322.326 358.687 322.517 358.792 322.729 358.889C322.923 359.012 323.15 359.117 323.34 359.287C323.545 359.437 323.736 359.618 323.921 359.811C324.117 359.994 324.264 360.225 324.439 360.433C324.727 360.894 324.956 361.386 325.115 361.864C325.185 362.107 325.24 362.344 325.294 362.567C325.322 362.795 325.35 363.01 325.375 363.209C325.445 363.603 325.389 363.94 325.401 364.169C325.393 364.399 325.389 364.53 325.389 364.53C325.389 364.53 325.367 364.4 325.331 364.172C325.289 363.946 325.274 363.617 325.175 363.239C325.132 363.049 325.086 362.844 325.037 362.627C324.965 362.417 324.886 362.197 324.818 361.966C324.653 361.515 324.422 361.059 324.14 360.636C323.982 360.438 323.853 360.215 323.675 360.039C323.507 359.853 323.334 359.678 323.145 359.531C322.781 359.225 322.404 358.974 322.054 358.808C321.363 358.453 320.839 358.347 320.839 358.347Z" fill="#1E7082"/>
<path d="M335.323 347.476C335.323 347.476 335.373 347.752 335.492 348.226C335.602 348.702 335.805 349.371 336.047 350.169C336.182 350.565 336.307 351 336.483 351.445C336.644 351.895 336.832 352.362 337.034 352.843C337.422 353.809 337.93 354.799 338.478 355.761C338.779 356.225 339.043 356.715 339.368 357.153C339.699 357.584 339.984 358.044 340.345 358.418C340.695 358.8 340.997 359.205 341.359 359.515C341.713 359.83 342.007 360.182 342.355 360.412C342.685 360.666 342.988 360.899 343.257 361.105C343.538 361.293 343.8 361.433 344.008 361.561C344.429 361.81 344.669 361.953 344.669 361.953C344.669 361.953 344.417 361.83 343.979 361.614C343.761 361.502 343.486 361.382 343.187 361.214C342.903 361.023 342.581 360.809 342.23 360.574C341.866 360.354 341.554 360.013 341.178 359.707C340.795 359.405 340.466 359.011 340.108 358.622C339.733 358.245 339.436 357.783 339.093 357.348C338.756 356.906 338.479 356.412 338.168 355.942C337.623 354.955 337.123 353.944 336.744 352.961C336.34 351.986 336.082 351.034 335.852 350.225C335.434 348.593 335.323 347.476 335.323 347.476Z" fill="#1E7082"/>
<path d="M382.882 346.352C382.882 346.352 378.447 359.039 379.289 364.868C391.727 364.633 414.611 365.247 414.611 365.247C414.611 365.247 415.191 357.156 408.041 356.432C400.891 355.708 399.065 345.79 399.065 345.79L382.882 346.352Z" fill="#3F3D56"/>
<path d="M399.22 361.439L397.694 359.861L394.834 361.952L392.572 360.285L396.484 356.554L393.432 353.831L387.904 359.861L380.964 352.682C379.887 356.723 378.84 361.767 379.289 364.868C384.052 364.778 390.346 364.813 396.301 364.89L399.22 361.439Z" fill="#72717E"/>
<path d="M408.839 356.554C403.312 358.213 402.754 363.206 402.808 363.913C396.1 365.726 386.172 362.84 379.298 362.401C379.237 362.862 379.188 362.757 379.186 363.332C379.184 363.85 379.224 364.782 379.297 365.286C384.639 366.664 407.369 368.812 414.619 365.666C414.72 364.819 414.62 362.997 414.089 361.36C413.434 359.34 411.991 357.167 408.839 356.554Z" fill="white"/>
<path d="M399.375 356.493C399.375 356.493 399.548 356.266 399.863 355.984C400.025 355.849 400.208 355.68 400.429 355.534C400.647 355.385 400.888 355.237 401.134 355.095C401.641 354.841 402.181 354.647 402.605 354.583C403.027 354.511 403.313 354.543 403.313 354.543C403.313 354.543 403.246 354.567 403.129 354.608C403.011 354.638 402.853 354.712 402.659 354.779C402.466 354.849 402.25 354.954 402.017 355.056C401.782 355.157 401.54 355.283 401.302 355.414C401.058 355.536 400.816 355.665 400.596 355.798C400.371 355.925 400.161 356.045 399.982 356.148C399.621 356.355 399.375 356.493 399.375 356.493Z" fill="#1E7082"/>
<path d="M396.77 351.961C396.77 351.961 396.977 351.766 397.336 351.539C397.517 351.433 397.725 351.296 397.967 351.188C398.206 351.076 398.469 350.97 398.735 350.872C399.277 350.704 399.842 350.602 400.27 350.608C400.699 350.607 400.975 350.685 400.975 350.685C400.975 350.685 400.905 350.698 400.784 350.72C400.663 350.729 400.493 350.777 400.291 350.811C400.089 350.848 399.859 350.916 399.612 350.979C399.365 351.04 399.105 351.124 398.848 351.214C398.587 351.294 398.328 351.382 398.088 351.476C397.846 351.565 397.62 351.648 397.426 351.72C397.036 351.865 396.77 351.961 396.77 351.961Z" fill="#1E7082"/>
<path d="M380.214 356.818C380.214 356.818 380.754 356.795 381.516 357.066C381.708 357.126 381.902 357.227 382.115 357.319C382.312 357.439 382.54 357.539 382.733 357.705C382.942 357.851 383.137 358.027 383.326 358.217C383.525 358.395 383.677 358.623 383.856 358.828C384.155 359.283 384.394 359.77 384.562 360.245C384.637 360.485 384.697 360.722 384.756 360.943C384.79 361.17 384.821 361.385 384.851 361.583C384.928 361.976 384.88 362.313 384.897 362.542C384.893 362.772 384.892 362.905 384.892 362.905C384.892 362.905 384.868 362.774 384.826 362.547C384.781 362.322 384.758 361.994 384.651 361.617C384.605 361.429 384.554 361.224 384.501 361.009C384.424 360.8 384.341 360.582 384.268 360.353C384.093 359.905 383.853 359.453 383.563 359.036C383.401 358.842 383.266 358.622 383.085 358.45C382.913 358.267 382.736 358.096 382.544 357.953C382.173 357.654 381.791 357.412 381.438 357.253C380.74 356.913 380.214 356.818 380.214 356.818Z" fill="#1E7082"/>
<path d="M394.876 345.808C394.876 345.808 394.926 346.084 395.046 346.557C395.156 347.034 395.358 347.702 395.6 348.501C395.735 348.896 395.861 349.332 396.036 349.777C396.198 350.226 396.385 350.694 396.587 351.174C396.975 352.141 397.484 353.131 398.032 354.092C398.332 354.557 398.596 355.047 398.921 355.485C399.252 355.916 399.537 356.376 399.898 356.75C400.249 357.132 400.551 357.536 400.912 357.847C401.267 358.162 401.561 358.514 401.909 358.744C402.239 358.998 402.542 359.23 402.811 359.437C403.092 359.625 403.353 359.764 403.561 359.892C403.982 360.142 404.222 360.284 404.222 360.284C404.222 360.284 403.971 360.161 403.532 359.946C403.314 359.834 403.039 359.714 402.74 359.546C402.456 359.355 402.134 359.14 401.784 358.905C401.42 358.686 401.108 358.344 400.732 358.039C400.349 357.737 400.019 357.343 399.661 356.954C399.287 356.576 398.99 356.115 398.646 355.679C398.309 355.237 398.033 354.744 397.721 354.274C397.176 353.287 396.676 352.276 396.298 351.292C395.894 350.317 395.636 349.366 395.406 348.557C394.987 346.925 394.876 345.808 394.876 345.808Z" fill="#1E7082"/>
<path d="M350.945 162.811L371.538 252.073L378.06 334.118L402.72 335.369L403.955 267.232C404.165 253.455 403.008 239.691 400.499 226.142L387.794 157.528L369.55 155.975L350.945 162.811Z" fill="#3F3D56"/>
<path d="M331.12 162.255L326.709 259.622L319.933 336.559L344.008 336.662L356.949 262.894L367.468 194.688L367.607 162.411L331.12 162.255Z" fill="#3F3D56"/>
<mask id="mask0_1_137" style="mask-type:luminance" maskUnits="userSpaceOnUse" x="319" y="155" width="85" height="182">
<path d="M352.212 162.345L331.121 162.255L326.708 259.622L319.933 336.559L344.009 336.662L356.949 262.895L363.795 218.508L371.537 252.073L378.06 334.117L402.72 335.368L403.956 267.233C404.165 253.455 403.008 239.69 400.499 226.142L387.795 157.529L369.551 155.975L352.212 162.345Z" fill="white"/>
</mask>
<g mask="url(#mask0_1_137)">
<path d="M330.247 318.33C324.154 317.209 331.813 307.003 327.845 302.639C323.878 298.274 315.122 306.154 315.122 306.154C315.122 306.154 311.161 330.767 315.122 338.689C319.082 346.61 327.004 345.195 331.248 338.689C335.491 332.182 336.34 319.451 330.247 318.33ZM363.478 179.245C373.298 176.013 374.572 174.268 377.522 179.245C380.473 184.223 391.728 184.622 395.578 175.935C399.427 167.249 398.378 161.59 389.85 159.893C381.322 158.196 353.104 162.255 353.104 162.255C353.104 162.255 353.657 182.476 363.478 179.245ZM413.29 315.774C394.618 309.267 404.52 324.261 394.877 323.802C385.233 323.343 392.432 337.441 392.432 337.441L408.213 338.689C408.213 338.689 431.961 322.28 413.29 315.774ZM408.213 307.852L406.782 280.128C392.069 275.884 398.013 284.654 398.862 291.635C399.711 298.615 397.447 304.174 408.213 307.852ZM392.432 299.082C394.771 289.181 388.677 290.312 381.931 287.2C375.185 284.089 387.545 277.582 384.892 272.489C382.238 267.397 369.508 272.489 369.508 272.489L373.731 315.49C405.182 324.826 390.092 308.984 392.432 299.082ZM406.737 270.226L408.107 243.067C389.062 239.389 399.71 254.666 396.769 259.266C393.829 263.866 396.033 269.943 406.737 270.226ZM391.19 254.384C391.44 244.199 384.151 247.311 386.561 242.784C388.97 238.258 386.979 235.146 379.182 235.146C371.385 235.146 379.058 219.869 372.175 218.666C365.291 217.462 363.478 228.356 363.478 228.356L366.115 263.425C366.115 263.425 390.94 264.568 391.19 254.384ZM377.522 207.704C384.433 208.836 391.517 211.099 386.561 215.059C381.604 219.02 376.276 222.981 380.213 228.356C384.151 233.731 390.608 224.961 394.877 228.356C399.145 231.751 399.145 236.747 410.743 230.147L398.862 190.447C398.862 190.447 391.263 198.324 383.181 198.205C375.097 198.085 370.611 206.572 377.522 207.704ZM343.77 217.323C345.676 209.402 336.024 202.046 347.498 199.783C358.972 197.52 360.69 187.966 356.153 185.387C351.617 182.808 332.736 191.046 325.768 180.421L324.343 217.323C331.53 221.284 341.863 225.244 343.77 217.323ZM337.48 229.771C333.528 237.409 345.959 235.146 345.505 244.199C345.052 253.252 362.568 247.877 362.568 247.877V231.468C357.676 221.849 341.432 222.133 337.48 229.771ZM337.36 277.299C343.13 265.982 353.633 270.417 349.654 259.854C345.676 249.291 335.513 260.853 333.097 252.668C330.682 244.482 325.96 244.764 323.228 247.594L319.933 277.299C320.497 278.148 331.591 288.615 337.36 277.299ZM337.48 291.635C339.186 298.049 343.695 302.76 336.151 308.418C328.606 314.076 339.169 317.754 349.907 320.328L356.242 285.786C344.743 276.167 335.774 285.22 337.48 291.635Z" fill="#3F3D56"/>
</g>
<path d="M349.536 166.252C349.536 166.252 349.635 166.609 349.75 167.249C349.857 167.889 349.999 168.812 350.006 169.931C350.009 170.491 349.984 171.097 349.915 171.737C349.833 172.373 349.736 173.049 349.524 173.723C349.132 175.069 348.438 176.465 347.372 177.548C346.857 178.106 346.229 178.541 345.606 178.942C344.958 179.305 344.293 179.612 343.623 179.829C342.956 180.059 342.288 180.188 341.656 180.303C341.018 180.378 340.417 180.465 339.858 180.471C339.299 180.511 338.787 180.496 338.335 180.473C337.882 180.466 337.489 180.438 337.166 180.399C336.52 180.337 336.151 180.3 336.151 180.3C336.151 180.3 336.521 180.314 337.169 180.338C337.492 180.358 337.885 180.362 338.336 180.342C338.787 180.337 339.293 180.321 339.844 180.268C340.397 180.243 340.987 180.138 341.611 180.044C342.228 179.91 342.874 179.758 343.522 179.533C344.173 179.315 344.812 179.009 345.433 178.654C346.028 178.259 346.625 177.836 347.113 177.297C348.145 176.273 348.828 174.938 349.225 173.633C349.626 172.322 349.775 171.033 349.804 169.93C349.861 167.715 349.536 166.252 349.536 166.252Z" fill="#2A2D2E"/>
<path d="M381.931 160.982C381.931 160.982 381.965 162.227 382.203 164.071C382.451 165.906 382.86 168.374 383.815 170.644C384.27 171.783 384.879 172.864 385.643 173.715C386.015 174.149 386.437 174.506 386.855 174.819C387.073 174.961 387.292 175.092 387.505 175.215C387.73 175.314 387.944 175.42 388.157 175.503C388.376 175.572 388.585 175.637 388.785 175.7C388.99 175.74 389.185 175.778 389.369 175.814C389.738 175.88 390.068 175.876 390.338 175.903C390.88 175.88 391.19 175.867 391.19 175.867C391.19 175.867 390.881 175.902 390.34 175.964C390.068 175.956 389.733 175.983 389.353 175.943C389.162 175.92 388.96 175.895 388.747 175.869C388.538 175.813 388.319 175.756 388.09 175.695C387.866 175.619 387.64 175.517 387.401 175.423C387.176 175.305 386.942 175.177 386.708 175.038C386.26 174.73 385.799 174.375 385.41 173.924C384.604 173.048 383.962 171.942 383.481 170.782C383.008 169.618 382.673 168.406 382.441 167.258C382.204 166.11 382.085 165.023 382.002 164.092C381.861 162.226 381.931 160.982 381.931 160.982Z" fill="#2A2D2E"/>
<path d="M373.17 171.329C373.331 174.741 373.469 178.154 373.569 181.568L373.909 191.808C373.912 191.894 373.853 191.967 373.773 191.987L366.649 193.669L366.755 193.548L365.146 207.62L363.478 221.685L364.948 207.598L366.477 193.517C366.483 193.457 366.528 193.41 366.583 193.396L373.69 191.64L373.553 191.818L373.332 181.575C373.245 178.16 373.196 174.745 373.17 171.329Z" fill="#2A2D2E"/>
<path d="M336.151 164.366C336.151 164.366 335.765 174.533 335.187 189.783C334.556 205.031 333.717 225.361 332.876 245.691C332.648 250.773 332.42 255.855 332.195 260.858C331.939 265.86 331.754 270.781 331.414 275.545C330.995 280.302 330.374 284.874 329.809 289.208C329.211 293.539 328.644 297.633 328.121 301.413C327.053 308.968 326.084 315.253 325.413 319.653C324.732 324.052 324.343 326.566 324.343 326.566C324.343 326.566 325.774 316.493 327.917 301.384C328.427 297.604 328.979 293.508 329.564 289.176C330.113 284.84 330.718 280.269 331.12 275.522C331.444 270.772 331.617 265.841 331.858 260.842C332.081 255.84 332.308 250.758 332.534 245.676C334.342 205.022 336.151 164.366 336.151 164.366Z" fill="#2A2D2E"/>
<path d="M320.689 326.55C320.689 326.55 322.241 326.516 324.567 326.465C325.731 326.454 327.088 326.441 328.542 326.427C329.996 326.426 331.547 326.424 333.098 326.423C334.649 326.438 336.2 326.452 337.654 326.466C339.108 326.492 340.465 326.517 341.628 326.538C343.954 326.608 345.506 326.656 345.506 326.656C345.506 326.656 343.954 326.69 341.627 326.741C340.464 326.752 339.107 326.765 337.653 326.779C336.199 326.781 334.647 326.782 333.097 326.783C331.545 326.768 329.995 326.754 328.541 326.74C327.087 326.714 325.73 326.689 324.566 326.668C322.24 326.597 320.689 326.55 320.689 326.55Z" fill="#2A2D2E"/>
<path d="M377.523 326.313C377.523 326.313 379.107 326.353 381.483 326.412C382.671 326.456 384.056 326.508 385.54 326.563C387.025 326.631 388.607 326.703 390.19 326.775C391.772 326.864 393.354 326.952 394.836 327.034C396.319 327.13 397.702 327.219 398.888 327.295C401.259 327.477 402.839 327.597 402.839 327.597C402.839 327.597 401.254 327.557 398.878 327.498C397.691 327.454 396.305 327.403 394.821 327.348C393.337 327.28 391.755 327.207 390.172 327.135C388.59 327.047 387.008 326.958 385.525 326.876C384.042 326.78 382.659 326.691 381.473 326.614C379.103 326.433 377.523 326.313 377.523 326.313Z" fill="#2A2D2E"/>
<path d="M327.957 168.544C326.247 156.688 328.252 106.977 327.961 86.8847C327.74 71.7173 338.986 70.7328 353.068 69.2704C367.15 67.8073 378.14 68.3708 385.569 73.5369C392.998 78.7039 391.841 163.793 391.841 163.793C381.228 172.203 345.651 173.274 327.957 168.544Z" fill="#658DA4"/>
<path d="M327.957 168.544C326.247 156.688 328.252 106.977 327.961 86.8847C327.74 71.7173 338.986 70.7328 353.068 69.2704C367.15 67.8073 378.14 68.3708 385.569 73.5369C392.998 78.7039 391.841 163.793 391.841 163.793C381.228 172.203 345.651 173.274 327.957 168.544Z" fill="#658DA4"/>
<path d="M340.442 74.0171C341.715 76.1533 349.473 87.8477 355.495 88.0124C361.518 88.177 369.902 96.8424 370.719 99.672C371.142 96.5377 376.937 85.2065 379.087 80.9001C381.049 76.9706 384.223 75.7815 383.583 72.3264C377.134 68.0234 365.722 67.2324 352.84 68.57C345.718 69.3101 339.553 70.6307 334.999 73.0215C336.897 72.7652 339.635 72.6625 340.442 74.0171Z" fill="#AAB6BC"/>
<path d="M340.442 74.0171C341.715 76.1533 349.473 87.8477 355.495 88.0124C361.518 88.177 369.902 96.8424 370.719 99.672C371.142 96.5377 376.937 85.2065 379.087 80.9001C381.049 76.9706 384.223 75.7815 383.583 72.3264C377.134 68.0234 365.722 67.2324 352.84 68.57C345.718 69.3101 339.553 70.6307 334.999 73.0215C336.897 72.7652 339.635 72.6625 340.442 74.0171Z" fill="#AAB6BC"/>
<path d="M342.213 70.6865C342.213 70.6865 353.225 84.013 359.741 84.7862C366.257 85.5602 370.552 96.4272 370.552 96.4272C370.552 96.4272 377.138 72.6174 376.26 69.6469C371.104 65.1572 348.086 66.6339 342.213 70.6865Z" fill="white"/>
<path d="M350.504 69.4803C350.504 69.4803 350.378 69.4947 350.139 69.5227C349.902 69.549 349.554 69.5957 349.122 69.701C348.705 69.813 348.134 69.9496 347.733 70.3901C347.54 70.6142 347.534 70.9486 347.711 71.227C347.881 71.5079 348.155 71.7481 348.458 71.9653C349.704 72.8208 351.444 73.3352 353.296 73.7179C355.162 74.0939 357.196 74.262 359.226 74.2501C361.261 74.2433 363.297 74.1296 365.19 73.9013C367.079 73.6636 368.844 73.3547 370.267 72.8217C370.965 72.5509 371.626 72.2505 371.996 71.7795C372.187 71.5478 372.207 71.2465 372.066 71.0275C371.938 70.8043 371.736 70.6507 371.553 70.5319C371.18 70.2934 370.847 70.1703 370.626 70.0846C370.4 70.0048 370.279 69.9624 370.279 69.9624C370.279 69.9624 370.401 69.9997 370.631 70.0693C370.856 70.1465 371.194 70.2535 371.585 70.4809C371.777 70.5947 371.993 70.7398 372.146 70.98C372.316 71.2134 372.308 71.5911 372.103 71.8533C371.716 72.3905 371.049 72.719 370.341 73.011C368.902 73.5813 367.133 73.9598 365.229 74.2119C364.277 74.3375 363.288 74.4275 362.282 74.4945C361.272 74.5565 360.258 74.6082 359.227 74.6108C357.175 74.6057 355.121 74.4207 353.235 74.0243C351.356 73.6212 349.614 73.0407 348.339 72.1291C348.03 71.8932 347.74 71.6377 347.561 71.311C347.367 70.9919 347.394 70.5497 347.634 70.3078C348.105 69.8368 348.681 69.7426 349.108 69.6424C349.549 69.555 349.9 69.5236 350.138 69.5066C350.377 69.4896 350.504 69.4803 350.504 69.4803Z" fill="#2A2D2E"/>
<path d="M327.531 163.549C327.636 165.588 327.775 167.282 327.958 168.544C345.651 173.274 381.227 172.203 391.841 163.793C391.841 163.793 391.858 162.524 391.875 160.298C385.192 162.796 359.724 170.902 327.531 163.549Z" fill="#AAB6BC"/>
<path d="M327.531 163.549C327.636 165.588 327.775 167.282 327.958 168.544C345.651 173.274 381.227 172.203 391.841 163.793C391.841 163.793 391.858 162.524 391.875 160.298C385.192 162.796 359.724 170.902 327.531 163.549Z" fill="#AAB6BC"/>
<path d="M369.403 71.1225C367.356 71.9525 363.812 73.0872 359.294 73.0253C355.15 72.9684 351.882 71.927 349.899 71.1225C349.899 63.2736 349.224 55.7735 349.224 47.9237L369.403 51.6207V71.1225Z" fill="#FAB29B"/>
<path d="M379.059 46.8047C379.296 59.4081 378.309 66.0162 363.842 65.6861C354.677 65.4764 349 58.7487 349.18 46.3702C349.476 26.0028 355.279 24.0405 364.445 24.1738C373.612 24.307 378.726 29.0462 379.059 46.8047Z" fill="#FAB29B"/>
<path d="M360.35 65.4258C360.35 65.4258 360.518 65.4521 360.812 65.4971C361.105 65.5463 361.524 65.5904 362.027 65.6397C363.034 65.7271 364.381 65.7644 365.725 65.6795C367.071 65.6312 368.413 65.4708 369.421 65.3587C370.431 65.2382 371.104 65.1576 371.104 65.1576C371.104 65.1576 370.452 65.3528 369.453 65.559C368.953 65.6549 368.369 65.7746 367.735 65.8518C367.102 65.9308 366.423 66.0021 365.743 66.0402C365.061 66.0657 364.378 66.0666 363.739 66.0343C363.099 66.0088 362.506 65.9206 362.001 65.8408C360.988 65.6643 360.35 65.4258 360.35 65.4258Z" fill="#2A2D2E"/>
<path d="M352.274 48.1527C352.228 51.3176 350.636 53.8603 348.719 53.8323C346.801 53.8043 345.285 51.2166 345.331 48.0517C345.376 44.8868 346.969 42.3441 348.886 42.3721C350.803 42.4001 352.32 44.9878 352.274 48.1527Z" fill="#FAB29B"/>
<path d="M421.504 91.8979C420.211 91.6204 419.039 91.488 419.039 91.488C419.039 91.488 420.16 91.7409 421.504 91.8979Z" fill="#FAB29B"/>
<path d="M419.381 79.9906C415.343 79.1419 407.632 85.5072 402.384 89.5912C403.947 93.7711 404.345 96.4454 405.651 100.625L414.634 93.5522C414.634 93.5522 420.415 94.5935 423.597 93.6939C425.72 93.093 423.613 92.3504 421.504 91.898C420.16 91.741 419.039 91.4881 419.039 91.4881C419.039 91.4881 420.211 91.6205 421.504 91.898C423.355 92.1145 425.634 92.1467 426.02 91.0765C426.426 89.9545 420.818 88.3513 420.818 88.3513C420.818 88.3513 427.113 89.8654 427.152 88.0118C427.192 86.159 421.745 85.015 421.745 85.015C421.745 85.015 427.969 86.0215 428.715 84.2868C429.599 82.2286 420.917 80.3139 419.381 79.9906Z" fill="#FAB29B"/>
<path d="M396.923 92.9993L399.841 108.152L406.782 101.011C405.476 96.8321 403.947 92.6522 402.384 88.4731C399.201 90.9497 396.923 92.9993 396.923 92.9993Z" fill="#658DA4"/>
<path d="M423.92 85.1031C423.92 85.1031 423.713 85.1404 423.407 85.154C423.255 85.154 423.075 85.1701 422.886 85.1582C422.696 85.1472 422.494 85.1362 422.292 85.1243C422.091 85.0963 421.891 85.0683 421.703 85.0428C421.515 85.0182 421.342 84.9664 421.193 84.9367C420.895 84.8637 420.699 84.7865 420.699 84.7865C420.699 84.7865 420.907 84.7483 421.213 84.7347C421.365 84.7347 421.545 84.7186 421.734 84.7305C421.923 84.7415 422.125 84.7534 422.327 84.7653C422.528 84.7933 422.729 84.8213 422.916 84.8476C423.105 84.8731 423.277 84.9231 423.427 84.9528C423.724 85.0258 423.92 85.1031 423.92 85.1031Z" fill="#2A2D2E"/>
<path d="M423.597 88.7373C423.597 88.7373 423.391 88.7789 423.084 88.7992C422.932 88.8026 422.752 88.8222 422.563 88.8145C422.373 88.8069 422.17 88.8001 421.968 88.7925C421.766 88.7687 421.565 88.7449 421.377 88.7229C421.187 88.7025 421.013 88.655 420.863 88.6287C420.564 88.5616 420.367 88.4878 420.367 88.4878C420.367 88.4878 420.573 88.4453 420.879 88.4258C421.031 88.4224 421.211 88.4021 421.4 88.4105C421.591 88.4182 421.793 88.4258 421.995 88.4326C422.197 88.4564 422.398 88.4801 422.587 88.503C422.775 88.5243 422.949 88.5709 423.1 88.5973C423.399 88.6643 423.597 88.7373 423.597 88.7373Z" fill="#2A2D2E"/>
<path d="M422.866 92.2459C422.866 92.2459 422.626 92.256 422.276 92.2297C422.101 92.2102 421.895 92.2026 421.679 92.1661C421.464 92.1304 421.234 92.0922 421.004 92.0541C420.777 92.0006 420.55 91.9463 420.337 91.8953C420.124 91.847 419.932 91.7731 419.763 91.7239C419.429 91.6119 419.212 91.5092 419.212 91.5092C419.212 91.5092 419.452 91.4981 419.803 91.5245C419.977 91.5448 420.184 91.5516 420.399 91.589C420.615 91.6246 420.845 91.6628 421.075 91.701C421.301 91.7553 421.528 91.8088 421.741 91.8597C421.954 91.9098 422.147 91.9828 422.316 92.032C422.649 92.1432 422.866 92.2459 422.866 92.2459Z" fill="#2A2D2E"/>
<path d="M330.247 115.557C330.247 115.557 339.555 135.992 357.742 136.999C372.051 137.79 391.663 120.339 399.375 112.861C401.447 110.851 402.328 107.91 401.716 105.089L398.874 91.9772C398.7 91.1752 397.802 90.7686 397.085 91.1675L359.154 112.253C359.154 112.253 335.951 72.871 334.999 73.0212C323.294 74.8722 317.086 96.2776 330.247 115.557Z" fill="#AAB6BC"/>
<path d="M325.768 107.055C326.736 109.554 327.997 112.07 329.601 114.559C335.068 106.677 341.803 99.9049 350.608 97.1848C349.55 95.3338 348.456 93.4242 347.362 91.5256C338.596 94.0488 330.847 98.6056 325.768 107.055Z" fill="#658DA4"/>
<path d="M332.596 119.749C333.467 121.128 334.575 122.737 335.926 124.411C339.573 115.937 347.551 110.536 356.243 107.095C355.528 105.831 354.706 104.381 353.817 102.816C345.244 106.097 337.961 112.162 332.596 119.749Z" fill="#658DA4"/>
<path d="M398.862 91.9238C398.76 91.4553 398.351 91.0802 397.881 91.0225C397.393 90.9274 396.992 91.2652 396.58 91.4833L394.101 92.8973L389.132 95.7048L379.176 101.288L369.214 106.859L359.217 112.368C359.154 112.403 359.075 112.38 359.04 112.318L354.321 103.973L349.655 95.5979L354.486 103.879L359.267 112.189L359.09 112.138L369.045 106.556L379.036 101.036L389.033 95.5275L394.041 92.7895L396.549 91.4299C396.959 91.2245 397.384 90.8842 397.886 90.9919C398.367 91.0624 398.771 91.4536 398.862 91.9238Z" fill="#2A2D2E"/>
<path d="M330.247 115.557C330.247 115.557 330.872 116.92 332.251 119.142C333.627 121.359 335.782 124.44 338.921 127.633C340.491 129.225 342.339 130.808 344.457 132.246C346.585 133.661 349.005 134.916 351.669 135.745C354.334 136.546 357.213 137.037 360.137 136.802C363.048 136.569 365.941 135.73 368.695 134.616C371.466 133.526 374.11 132.126 376.641 130.643C379.17 129.147 381.567 127.526 383.835 125.887C388.365 122.595 392.358 119.209 395.677 116.201C397.323 114.685 398.859 113.307 400.114 112.002C401.306 110.634 401.812 109.049 401.923 107.762C402.054 106.456 401.777 105.443 401.637 104.761C401.493 104.076 401.417 103.71 401.417 103.71C401.417 103.71 401.499 104.074 401.652 104.758C401.801 105.435 402.095 106.449 401.983 107.768C401.889 109.067 401.406 110.675 400.212 112.088C398.964 113.428 397.456 114.821 395.808 116.345C392.5 119.374 388.519 122.785 383.995 126.107C381.73 127.762 379.334 129.4 376.803 130.914C374.268 132.417 371.619 133.839 368.829 134.95C366.044 136.06 363.121 136.894 360.158 137.116C357.202 137.34 354.268 136.827 351.587 136.003C348.899 135.153 346.464 133.873 344.328 132.437C342.201 130.979 340.352 129.377 338.784 127.768C335.638 124.548 333.553 121.405 332.199 119.173C330.851 116.929 330.247 115.557 330.247 115.557Z" fill="#2A2D2E"/>
<path d="M359.917 111.914C359.917 111.914 359.474 112.224 358.79 112.651C358.444 112.859 358.048 113.115 357.611 113.364C357.173 113.615 356.707 113.881 356.241 114.148C355.766 114.401 355.292 114.653 354.847 114.889C354.403 115.128 353.975 115.325 353.615 115.506C352.888 115.858 352.39 116.067 352.39 116.067C352.39 116.067 352.832 115.756 353.517 115.328C353.863 115.121 354.258 114.864 354.696 114.615C355.133 114.366 355.6 114.098 356.067 113.832C356.541 113.58 357.016 113.328 357.46 113.091C357.904 112.853 358.332 112.656 358.693 112.474C359.419 112.123 359.917 111.914 359.917 111.914Z" fill="#2A2D2E"/>
<path d="M348.886 42.3717C348.886 42.3717 351.652 43.9945 351.22 48.3704L353.873 49.1156C353.873 49.1156 356.336 45.0885 354.677 41.8701C353.018 38.6527 356.207 35.6983 356.207 35.6983C363.499 41.1037 371.927 38.7282 374.258 36.9713C376.588 35.2137 383.5 35.7772 383.765 26.898C384.03 18.0187 377.795 16.85 370.951 17.8897C366.608 18.5492 356.551 13.0427 353.104 18.2886C349.656 23.5345 342.059 21.759 342.867 28.7609C343.674 35.7619 338.323 43.3808 348.886 42.3717Z" fill="#302F34"/>
<path d="M380.31 26.7521C380.31 26.7521 379.967 26.8294 379.368 26.9643C378.767 27.0882 377.907 27.2716 376.86 27.4116C375.815 27.5482 374.588 27.6925 373.262 27.6917C372.599 27.6959 371.911 27.6484 371.215 27.5559C370.53 27.4167 369.804 27.2928 369.176 26.8667C368.589 26.4627 367.987 26.3541 367.328 26.5289C366.688 26.691 366.081 26.9991 365.492 27.286C364.898 27.572 364.319 27.8529 363.729 28.0303C363.445 28.1432 363.142 28.1814 362.863 28.2544C362.578 28.3011 362.297 28.3155 362.031 28.3409C361.762 28.3223 361.506 28.3053 361.262 28.2892C361.026 28.2289 360.802 28.1712 360.59 28.1177C360.182 27.9811 359.843 27.8088 359.568 27.6739C359.052 27.3378 358.758 27.1451 358.758 27.1451C358.758 27.1451 359.063 27.3182 359.596 27.6204C359.877 27.7367 360.22 27.8843 360.626 27.9921C360.833 28.032 361.053 28.0736 361.285 28.1169C361.52 28.1237 361.766 28.1305 362.024 28.1381C362.279 28.1033 362.547 28.0804 362.819 28.0269C363.086 27.9454 363.371 27.9013 363.644 27.7816C364.205 27.5907 364.763 27.2911 365.352 27.0059C365.94 26.7123 366.551 26.3881 367.248 26.2022C367.596 26.1097 367.97 26.0664 368.354 26.1368C368.781 26.1988 369.033 26.3864 369.376 26.5671C369.918 26.9491 370.614 27.0848 371.269 27.224C371.941 27.3208 372.611 27.376 373.264 27.3793C374.569 27.3938 375.792 27.3174 376.836 27.2105C378.928 27.0085 380.31 26.7521 380.31 26.7521Z" fill="#2A2D2E"/>
<path d="M378.493 22.3265C378.493 22.3265 378.153 22.4309 377.549 22.5845C376.945 22.7338 376.079 22.9503 375.02 23.1115C373.963 23.2677 372.714 23.4222 371.365 23.3636C370.693 23.3254 369.991 23.2711 369.299 23.0716C368.946 23.0071 368.616 22.8348 368.274 22.7075C367.949 22.5132 367.64 22.3341 367.348 22.1397C366.762 21.7434 366.137 21.4862 365.473 21.2766C364.819 21.0602 364.146 20.9465 363.494 20.8582C362.84 20.7852 362.203 20.7504 361.598 20.764C360.994 20.7827 360.422 20.8302 359.904 20.9295C359.385 21.022 358.912 21.14 358.512 21.291C358.104 21.4277 357.773 21.6093 357.514 21.7723C357.256 21.9445 357.067 22.0973 356.964 22.2297C356.848 22.3502 356.787 22.4147 356.787 22.4147C356.787 22.4147 356.844 22.3468 356.951 22.2187C357.049 22.0795 357.228 21.9131 357.479 21.7222C357.732 21.5414 358.059 21.3343 358.464 21.1697C358.862 20.9889 359.337 20.8378 359.865 20.73C360.39 20.6112 360.971 20.5416 361.588 20.5009C362.205 20.4661 362.858 20.4737 363.529 20.5476C364.198 20.6299 364.892 20.7385 365.571 20.9541C366.243 21.1535 366.95 21.4404 367.546 21.8385C367.843 22.0421 368.149 22.2212 368.429 22.3952C368.747 22.5157 369.05 22.6821 369.388 22.7474C370.042 22.9452 370.725 23.0063 371.38 23.0521C372.696 23.1226 373.938 23.0377 374.992 22.9112C377.106 22.6643 378.493 22.3265 378.493 22.3265Z" fill="#2A2D2E"/>
<path d="M364.987 17.8523C364.987 17.8523 364.411 17.8667 363.555 17.9244C362.7 17.9889 361.562 18.0856 360.448 18.3063C359.889 18.4048 359.337 18.5329 358.829 18.6874C358.322 18.8461 357.855 19.0082 357.464 19.1805C357.273 19.273 357.096 19.357 356.94 19.4326C356.779 19.5022 356.66 19.5947 356.549 19.6549C356.331 19.7822 356.207 19.8544 356.207 19.8544C356.207 19.8544 356.317 19.761 356.509 19.5981C356.699 19.4283 356.997 19.2221 357.373 18.9989C357.758 18.7969 358.215 18.5643 358.732 18.3895C359.25 18.2164 359.813 18.067 360.381 17.9516C360.955 17.8582 361.53 17.7835 362.071 17.747C362.612 17.702 363.119 17.719 363.551 17.7216C364.418 17.7513 364.987 17.8523 364.987 17.8523Z" fill="#2A2D2E"/>
<path d="M362.138 24.1995C362.138 24.1995 361.699 24.1096 361.043 24.0069C360.716 23.9466 360.331 23.9135 359.922 23.8634C359.513 23.8261 359.075 23.7955 358.643 23.8201C358.209 23.8168 357.778 23.8702 357.39 23.9712C357.191 24.0094 357.02 24.0968 356.842 24.1486C356.673 24.2182 356.53 24.3166 356.386 24.3905C356.257 24.4838 356.15 24.5857 356.043 24.6663C355.929 24.7419 355.879 24.8496 355.814 24.9209C355.69 25.072 355.619 25.1586 355.619 25.1586C355.619 25.1586 355.669 25.0576 355.755 24.8819C355.807 24.7987 355.843 24.674 355.944 24.5764C356.035 24.4728 356.132 24.3421 356.263 24.2284C356.405 24.1325 356.552 24.0077 356.726 23.9118C356.908 23.8346 357.091 23.7132 357.304 23.6699C357.719 23.546 358.177 23.4713 358.633 23.4594C359.548 23.4442 360.442 23.6148 361.087 23.81C361.734 24.0001 362.138 24.1995 362.138 24.1995Z" fill="#2A2D2E"/>
<path d="M361.936 32.8394C361.936 32.8394 361.556 32.6009 360.978 32.2741C360.694 32.1018 360.345 31.9355 359.98 31.7454C359.611 31.5663 359.212 31.3838 358.798 31.254C358.392 31.0986 357.97 30.9968 357.572 30.9552C357.373 30.9204 357.182 30.9425 356.997 30.9281C356.813 30.934 356.645 30.9756 356.484 30.9943C356.33 31.0358 356.195 31.0944 356.066 31.1317C355.933 31.1623 355.848 31.2463 355.762 31.2896C355.593 31.3872 355.496 31.4432 355.496 31.4432C355.496 31.4432 355.578 31.3668 355.721 31.2319C355.799 31.1733 355.876 31.0689 356.004 31.0129C356.127 30.9484 356.263 30.8593 356.426 30.7999C356.593 30.7592 356.774 30.6947 356.971 30.6658C357.168 30.6582 357.383 30.6089 357.597 30.6429C358.03 30.6726 358.484 30.7642 358.916 30.9136C359.778 31.2209 360.554 31.6953 361.089 32.1044C361.628 32.5101 361.936 32.8394 361.936 32.8394Z" fill="#2A2D2E"/>
<path d="M353.984 20.8557C353.984 20.8557 353.169 21.5847 352.08 22.795C351.534 23.3959 350.929 24.1308 350.38 24.9728C350.122 25.4005 349.851 25.8486 349.695 26.34C349.535 26.8136 349.492 27.3636 349.464 27.8966C349.392 28.9728 349.382 30.065 349.341 31.0869C349.303 32.1087 349.214 33.0653 349.083 33.8775C348.954 34.6905 348.723 35.3534 348.473 35.7659C348.331 35.9636 348.22 36.1155 348.105 36.1817C348.004 36.2607 347.951 36.3022 347.951 36.3022C347.951 36.3022 348.001 36.2564 348.095 36.1698C348.202 36.0969 348.299 35.9365 348.421 35.7362C348.638 35.3152 348.786 34.6515 348.882 33.8486C349.073 32.2352 349.005 30.0642 349.104 27.8728C349.143 27.322 349.19 26.7746 349.377 26.2314C349.555 25.7001 349.844 25.2418 350.118 24.8013C350.698 23.9407 351.361 23.2414 351.934 22.6558C352.511 22.0719 353.037 21.6348 353.4 21.3258C353.772 21.0271 353.984 20.8557 353.984 20.8557Z" fill="#2A2D2E"/>
<path d="M352.604 28.7605C352.604 28.7605 352.305 29.3071 351.892 30.138C351.683 30.5513 351.459 31.0436 351.223 31.5706C350.982 32.0951 350.755 32.668 350.554 33.2477C350.337 33.8223 350.166 34.4104 350.027 34.968C349.97 35.2489 349.914 35.5205 349.86 35.7777C349.826 36.0391 349.794 36.2852 349.763 36.5135C349.753 36.7435 349.744 36.954 349.735 37.1407C349.716 37.3291 349.746 37.4904 349.75 37.6253C349.764 37.8978 349.772 38.0531 349.772 38.0531C349.772 38.0531 349.739 37.9003 349.68 37.6347C349.658 37.5006 349.606 37.3376 349.601 37.1467C349.587 36.9566 349.567 36.741 349.561 36.5042C349.572 36.2691 349.586 36.0136 349.6 35.7437C349.632 35.4756 349.67 35.1929 349.721 34.9018C349.848 34.3264 350.007 33.7179 350.215 33.1263C350.435 32.539 350.682 31.9636 350.941 31.4382C351.193 30.9086 351.479 30.4418 351.715 30.0395C352.209 29.2434 352.604 28.7605 352.604 28.7605Z" fill="#2A2D2E"/>
<path d="M353.104 33.1177C353.104 33.1177 352.976 33.7152 352.786 34.6115C352.696 35.0596 352.592 35.5816 352.48 36.1417C352.37 36.7002 352.26 37.2985 352.181 37.8994C352.078 38.4969 352.005 39.0986 351.96 39.6639C351.916 40.2291 351.882 40.757 351.893 41.2111C351.888 41.4385 351.918 41.6431 351.922 41.8289C351.927 42.0148 351.948 42.1744 351.975 42.3042C352.016 42.569 352.039 42.7201 352.039 42.7201C352.039 42.7201 351.99 42.5741 351.906 42.3195C351.862 42.1913 351.819 42.0335 351.789 41.8476C351.759 41.6634 351.699 41.4547 351.691 41.2238C351.648 40.763 351.615 40.2215 351.647 39.6444C351.678 39.0672 351.735 38.4528 351.825 37.8451C352.022 36.6306 352.309 35.4364 352.59 34.5606C352.864 33.683 353.104 33.1177 353.104 33.1177Z" fill="#2A2D2E"/>
<path d="M346.747 28.1108C346.747 28.1108 346.655 28.923 346.516 30.1418C346.447 30.7503 346.366 31.4607 346.279 32.2203C346.193 32.9807 346.105 33.7912 346.038 34.6035C345.955 35.414 345.881 36.2262 345.844 36.9875C345.802 37.7496 345.759 38.4609 345.768 39.0711C345.768 39.6805 345.78 40.1905 345.819 40.5453C345.858 40.9001 345.881 41.1038 345.881 41.1038C345.881 41.1038 345.837 40.9035 345.758 40.5538C345.712 40.379 345.686 40.1625 345.651 39.9147C345.612 39.6669 345.575 39.386 345.566 39.0779C345.527 38.4626 345.5 37.7429 345.532 36.9739C345.554 36.205 345.611 35.3868 345.679 34.5695C345.844 32.9383 346.083 31.3172 346.316 30.1121C346.549 28.906 346.747 28.1108 346.747 28.1108Z" fill="#2A2D2E"/>
<path d="M381.633 23.4428C381.633 23.4428 381.031 23.79 380.067 24.1863C379.581 24.373 379.017 24.6047 378.39 24.7863C377.767 24.9782 377.089 25.142 376.408 25.2888C375.72 25.4068 375.027 25.4959 374.374 25.5341C373.719 25.5757 373.106 25.5341 372.586 25.4916C372.065 25.428 371.638 25.3465 371.345 25.2582C371.053 25.1768 370.886 25.1309 370.886 25.1309C370.886 25.1309 371.058 25.1521 371.359 25.1886C371.655 25.2489 372.087 25.2582 372.599 25.2888C372.856 25.2998 373.135 25.2837 373.429 25.282C373.723 25.2811 374.032 25.2328 374.351 25.2217C374.991 25.17 375.668 25.0647 376.34 24.9349C377.689 24.6879 379.01 24.3009 379.998 23.9962C380.983 23.6847 381.633 23.4428 381.633 23.4428Z" fill="#2A2D2E"/>
<path d="M379.978 30.8824C379.978 30.8824 379.375 31.2295 378.411 31.6259C377.926 31.8126 377.361 32.0443 376.734 32.2251C376.111 32.4177 375.434 32.5815 374.752 32.7284C374.065 32.8463 373.372 32.9354 372.718 32.9736C372.064 33.0152 371.451 32.9736 370.931 32.9312C370.41 32.8676 369.983 32.7861 369.69 32.6978C369.398 32.6163 369.231 32.5705 369.231 32.5705C369.231 32.5705 369.402 32.5917 369.703 32.6282C370 32.6885 370.432 32.6978 370.943 32.7284C371.201 32.7394 371.48 32.7233 371.773 32.7216C372.067 32.7207 372.376 32.6723 372.695 32.6613C373.335 32.6095 374.012 32.5043 374.685 32.3744C376.033 32.1275 377.355 31.7405 378.343 31.4358C379.328 31.1243 379.978 30.8824 379.978 30.8824Z" fill="#2A2D2E"/>
<path d="M378.656 20.8566C378.656 20.8566 378.16 20.6885 377.415 20.4365C376.669 20.1997 375.675 19.889 374.659 19.6853C374.155 19.5665 373.644 19.4884 373.163 19.4324C372.922 19.4138 372.689 19.3951 372.468 19.3781C372.247 19.3756 372.036 19.3739 371.843 19.3713C371.459 19.407 371.13 19.4078 370.909 19.4672C370.682 19.5046 370.552 19.5258 370.552 19.5258C370.552 19.5258 370.676 19.48 370.891 19.3993C371.108 19.3111 371.431 19.2381 371.826 19.1693C372.223 19.1286 372.689 19.0895 373.189 19.1209C373.685 19.1625 374.214 19.2262 374.733 19.3323C375.251 19.4519 375.761 19.5945 376.231 19.7515C376.702 19.9035 377.125 20.0936 377.488 20.2472C378.21 20.5739 378.656 20.8566 378.656 20.8566Z" fill="#2A2D2E"/>
<path d="M368.605 193.052C368.605 193.052 370.336 201.295 372.77 213.692C373.972 219.893 375.354 227.133 376.745 234.906C377.442 238.793 378.131 242.815 378.783 246.91C379.418 251.002 380.043 255.188 380.257 259.398C381.281 276.211 382.306 293.025 383.074 305.636C383.803 318.247 384.287 326.656 384.287 326.656C384.287 326.656 383.722 318.253 382.875 305.648C382.068 293.041 380.992 276.231 379.916 259.421C379.719 255.214 379.109 251.054 378.489 246.955C377.85 242.861 377.175 238.838 376.491 234.951C375.125 227.175 373.767 219.932 372.587 213.727C370.244 201.313 368.605 193.052 368.605 193.052Z" fill="#2A2D2E"/>
<path d="M444.11 63.882C448.171 63.7054 451.518 62.2117 452.187 64.5363C452.857 66.8609 445.702 66.9127 445.702 66.9127" fill="#FAB29B"/>
<path d="M444.11 63.882C444.11 63.882 444.363 63.8549 444.805 63.8082C445.248 63.7564 445.872 63.6546 446.623 63.5315C447.375 63.4178 448.245 63.2328 449.203 63.1351C449.682 63.0902 450.186 63.0528 450.708 63.1326C451.218 63.198 451.792 63.4398 452.101 63.9295C452.193 64.0416 452.234 64.174 452.285 64.3021C452.311 64.3743 452.333 64.415 452.361 64.5118L452.396 64.6985C452.434 65.0184 452.323 65.318 452.142 65.537C451.774 65.9732 451.284 66.1735 450.83 66.3416C449.904 66.6607 449.007 66.7549 448.248 66.8398C446.721 66.9696 445.702 66.9128 445.702 66.9128C445.702 66.9128 446.722 66.8627 448.223 66.6378C448.971 66.5258 449.848 66.3628 450.723 66.0471C451.15 65.8858 451.602 65.6728 451.878 65.3291C452.014 65.1627 452.073 64.9489 452.053 64.763L452.016 64.5763L451.954 64.4311C451.91 64.3242 451.874 64.2122 451.8 64.1273C451.564 63.7394 451.122 63.5357 450.656 63.4644C450.187 63.3838 449.699 63.4093 449.231 63.4466C448.293 63.5281 447.409 63.6469 446.65 63.7318C445.893 63.8243 445.253 63.8472 444.81 63.8684C444.364 63.8769 444.11 63.882 444.11 63.882Z" fill="#2A2D2E"/>
<path d="M391.128 119.87C391.128 119.87 391.229 120.94 391.351 122.546C391.403 123.349 391.464 124.287 391.531 125.291C391.584 126.296 391.64 127.368 391.697 128.44C391.738 129.512 391.779 130.584 391.817 131.59C391.842 132.596 391.866 133.535 391.886 134.34C391.91 135.95 391.906 137.025 391.906 137.025C391.906 137.025 391.805 135.955 391.683 134.349C391.631 133.546 391.57 132.609 391.504 131.604C391.451 130.599 391.394 129.528 391.337 128.456C391.296 127.383 391.257 126.31 391.218 125.305C391.193 124.299 391.169 123.36 391.149 122.556C391.125 120.945 391.128 119.87 391.128 119.87Z" fill="#2A2D2E"/>
<path d="M389.782 95.2273C389.782 95.2273 389.632 94.275 389.436 92.8424C389.347 92.1261 389.243 91.2893 389.132 90.393C389.032 89.4959 388.926 88.5386 388.82 87.5812C388.731 86.623 388.641 85.664 388.557 84.7652C388.485 83.8647 388.419 83.0245 388.361 82.3048C388.263 80.8628 388.218 79.8995 388.218 79.8995C388.218 79.8995 388.368 80.8518 388.563 82.2836C388.652 83.0007 388.756 83.8376 388.869 84.7329C388.967 85.6309 389.073 86.5874 389.179 87.5447C389.268 88.5038 389.358 89.4628 389.442 90.3616C389.514 91.2621 389.581 92.1015 389.638 92.822C389.736 94.264 389.782 95.2273 389.782 95.2273Z" fill="#2A2D2E"/>
<path d="M419.381 79.9905C419.381 79.9905 419.577 79.9786 419.862 80.0016C420.003 80.0202 420.171 80.0253 420.344 80.0601C420.517 80.0932 420.702 80.1297 420.887 80.1654C421.068 80.2163 421.25 80.2681 421.419 80.3164C421.59 80.3631 421.742 80.4352 421.876 80.4819C422.14 80.5897 422.31 80.6899 422.31 80.6899C422.31 80.6899 422.113 80.7034 421.828 80.6797C421.688 80.661 421.52 80.6559 421.346 80.6211C421.173 80.5872 420.988 80.5515 420.803 80.5159C420.622 80.4641 420.441 80.4123 420.271 80.364C420.101 80.3164 419.949 80.2451 419.815 80.1985C419.551 80.0907 419.381 79.9905 419.381 79.9905Z" fill="#2A2D2E"/>
<path d="M338.745 70.227C338.745 70.227 338.952 70.1116 339.289 70.0131C339.624 69.907 340.091 69.8434 340.567 69.8553C340.803 69.8714 341.04 69.9172 341.258 69.9749C341.478 70.0343 341.664 70.1472 341.817 70.2431C341.963 70.3543 342.066 70.4638 342.124 70.5521C342.184 70.6369 342.213 70.6862 342.213 70.6862C342.213 70.6862 342.163 70.6565 342.076 70.603C342.001 70.5385 341.862 70.4935 341.719 70.4214C341.566 70.3594 341.381 70.3212 341.184 70.2788C340.984 70.2414 340.768 70.216 340.547 70.2151C340.329 70.1922 340.106 70.1948 339.897 70.1998C339.687 70.2041 339.49 70.2092 339.321 70.2126C338.98 70.2236 338.745 70.227 338.745 70.227Z" fill="#2A2D2E"/>
<path d="M376.26 69.6469C376.26 69.6469 376.191 69.4372 376.075 69.1436C376.025 68.9942 375.94 68.8312 375.865 68.6539C375.787 68.4782 375.694 68.2957 375.581 68.1285C375.384 67.7746 375.112 67.4716 374.891 67.2535C374.67 67.032 374.488 66.9047 374.494 66.8953C374.494 66.8953 374.548 66.9064 374.639 66.9352C374.731 66.9649 374.869 67.0006 375.01 67.0897C375.155 67.1703 375.327 67.2764 375.474 67.4283C375.625 67.5751 375.767 67.7525 375.889 67.9418C376.116 68.333 376.243 68.7667 376.272 69.0969C376.306 69.427 376.26 69.6469 376.26 69.6469Z" fill="#2A2D2E"/>
<path d="M370.552 96.4272C370.552 96.4272 370.648 96.9949 370.749 97.8496C370.792 98.2782 370.859 98.7755 370.902 99.3119C370.945 99.8475 370.992 100.419 371.039 100.99C371.068 101.562 371.099 102.135 371.128 102.671C371.157 103.208 371.157 103.71 371.171 104.14C371.185 105.001 371.165 105.576 371.165 105.576C371.165 105.576 371.069 105.009 370.968 104.154C370.925 103.725 370.857 103.228 370.815 102.692C370.771 102.156 370.725 101.585 370.679 101.014C370.649 100.442 370.618 99.8687 370.59 99.3323C370.562 98.7959 370.561 98.2935 370.547 97.8632C370.533 97.0026 370.552 96.4272 370.552 96.4272Z" fill="#2A2D2E"/>
<path d="M373.731 132.463C373.731 132.463 373.794 134.801 373.888 138.308C373.921 140.062 373.959 142.108 374 144.3C374.028 146.492 374.059 148.831 374.089 151.169C374.103 153.508 374.118 155.847 374.13 158.039C374.131 160.231 374.132 162.277 374.132 164.032C374.105 167.54 374.086 169.879 374.086 169.879C374.086 169.879 374.023 167.541 373.929 164.033C373.896 162.28 373.858 160.234 373.817 158.041C373.789 155.849 373.759 153.511 373.729 151.173C373.714 148.834 373.701 146.496 373.687 144.303C373.686 142.11 373.686 140.064 373.686 138.311C373.713 134.802 373.731 132.463 373.731 132.463Z" fill="#2A2D2E"/>
<path d="M347.498 166.252C347.467 162.53 347.398 158.806 347.398 155.084C347.397 155.028 347.443 154.983 347.498 154.983L347.515 154.985C349.363 155.225 351.249 155.256 353.109 155.109C354.04 155.033 354.967 154.905 355.88 154.715C356.794 154.528 357.69 154.262 358.555 153.922C358.991 153.761 359.41 153.557 359.823 153.347C360.237 153.137 360.63 152.892 361.016 152.636C361.389 152.364 361.765 152.091 362.098 151.772C362.45 151.473 362.752 151.12 363.05 150.769L363.471 150.221L363.838 149.634C364.064 149.235 364.282 148.825 364.446 148.394L364.693 147.748L364.878 147.08C365.014 146.638 365.064 146.175 365.163 145.723L365.165 145.709C365.182 145.632 365.248 145.578 365.324 145.572L381.312 144.359C381.376 144.354 381.432 144.402 381.438 144.466C381.5 145.093 381.625 145.725 381.785 146.342C381.94 146.961 382.136 147.571 382.386 148.158C382.496 148.458 382.635 148.745 382.785 149.027C382.92 149.316 383.076 149.594 383.256 149.857C383.427 150.126 383.591 150.4 383.806 150.637C384.019 150.872 384.183 151.153 384.431 151.355C384.667 151.568 384.887 151.8 385.136 151.998L385.927 152.534C386.199 152.698 386.504 152.804 386.791 152.944C387.074 153.096 387.388 153.162 387.699 153.239C388.011 153.299 388.313 153.434 388.636 153.434L389.596 153.505C389.916 153.553 390.235 153.481 390.556 153.467L391.517 153.387L390.558 153.488C390.237 153.509 389.917 153.588 389.596 153.547L388.629 153.496C388.303 153.503 387.996 153.375 387.678 153.32C387.362 153.25 387.043 153.189 386.752 153.04C386.458 152.906 386.146 152.804 385.865 152.643L385.047 152.114C384.788 151.918 384.558 151.687 384.313 151.474C384.055 151.272 383.879 150.991 383.662 150.75C383.442 150.509 383.272 150.232 383.096 149.959C382.909 149.692 382.749 149.409 382.609 149.117C382.455 148.831 382.311 148.54 382.196 148.237C381.938 147.642 381.736 147.024 381.573 146.397C381.406 145.769 381.275 145.137 381.205 144.484L381.331 144.591L365.352 145.924L365.512 145.773C365.414 146.239 365.371 146.716 365.224 147.171L365.027 147.859L364.767 148.526C364.594 148.971 364.365 149.394 364.127 149.807L363.743 150.411L363.302 150.976C362.993 151.337 362.676 151.7 362.31 152.007C361.963 152.334 361.574 152.612 361.188 152.889C360.789 153.149 360.384 153.397 359.958 153.61C359.534 153.822 359.104 154.026 358.658 154.188C357.774 154.527 356.861 154.79 355.934 154.973C355.007 155.159 354.069 155.282 353.129 155.352C351.246 155.485 349.356 155.441 347.483 155.183L347.599 155.084C347.599 158.806 347.53 162.53 347.498 166.252Z" fill="#2A2D2E"/>
<path d="M353.104 83.7248V96.4275" stroke="white" stroke-width="1.33333" stroke-miterlimit="10" stroke-linecap="round" stroke-linejoin="round"/>
<path d="M378.245 78.7182V94.0256" stroke="white" stroke-width="1.33333" stroke-miterlimit="10" stroke-linecap="round" stroke-linejoin="round"/>
<path d="M325.528 412.451H0.548951C0.548951 412.451 -6.03846 315.781 32.9371 314.683C71.9126 313.584 67.521 357.525 116.378 297.107C165.234 236.688 224.521 239.984 232.206 275.686C239.892 311.387 217.385 339.949 258.556 331.161C299.727 322.372 359.014 345.441 325.528 412.451Z" fill="#183D51"/>
<path d="M157.553 412.473L156.456 412.429C159.014 348.782 172.336 307.889 183.062 284.792C194.707 259.712 205.929 249.56 206.041 249.46L206.77 250.281C206.66 250.379 195.569 260.431 184.017 285.341C173.351 308.341 160.101 349.066 157.553 412.473Z" fill="#F2F2F2"/>
<path d="M275.171 412.604L274.117 412.297C286.808 368.712 316.694 341.193 316.995 340.92L317.733 341.733C317.435 342.004 287.772 369.328 275.171 412.604Z" fill="#F2F2F2"/>
<path d="M51.7346 412.526L50.6469 412.375C54.9527 381.303 47.1749 357.196 39.8917 342.444C32.0056 326.472 23.0077 317.748 22.9176 317.662L23.6773 316.869C23.7687 316.957 32.9057 325.814 40.8759 341.958C48.2273 356.848 56.0788 381.178 51.7346 412.526Z" fill="#F2F2F2"/>
<rect x="64" y="90" width="32" height="37" rx="2" fill="#658DA4"/>
<rect x="106" y="90" width="32" height="37" rx="2" fill="#87B2CA"/>
<rect x="148" y="90" width="32" height="37" rx="2" fill="#AAB6BC"/>
<rect x="64" y="139" width="32" height="37" rx="2" fill="#EEE9DA"/>
<rect x="106" y="139" width="32" height="37" rx="2" fill="#868F94"/>
<rect x="148" y="139" width="32" height="37" rx="2" fill="#5385A2"/>
</g>
<defs>
<clipPath id="clip0_1_137">
<rect width="628" height="413" fill="white"/>
</clipPath>
</defs>
</svg>
